PathFileType	4	(X/Y/Z)	Patient4_TMGait_0pt4_03_left_04.trc.trc
DataRate	CameraRate	NumFrames	NumMarkers	Units	OrigDataRate	OrigDataStartFrame	OrigNumFrames
77.348066298343	77.348066298343	4	33	mm	77.348066298343	124	       141
Frame#	Time	Sacral			L.Shoulder			Chest			R.Shoulder			Neck			R.ASIS			L.ASIS			R.Thigh.Superior			R.Thigh.Lateral			R.Thigh.Inferior			R.Patella			L.Thigh.Superior			L.Thigh.Lateral			L.Thigh.Inferior			L.Patella			L.Shank.Superior			L.Shank.Lateral			L.Shank.Inferior			R.Shank.Superior			R.Shank.Lateral			R.Shank.Inferior			R.Heel			R.Midfoot.Superior			R.Midfoot.Lateral			R.Toe			L.Heel			L.Midfoot.Lateral			L.Midfoot.Superior			L.Toe			L.Elbow			L.Wrist			R.Elbow			R.Wrist			
		X1	Y1	Z1	X2	Y2	Z2	X3	Y3	Z3	X4	Y4	Z4	X5	Y5	Z5	X6	Y6	Z6	X7	Y7	Z7	X8	Y8	Z8	X9	Y9	Z9	X10	Y10	Z10	X11	Y11	Z11	X12	Y12	Z12	X13	Y13	Z13	X14	Y14	Z14	X15	Y15	Z15	X16	Y16	Z16	X17	Y17	Z17	X18	Y18	Z18	X19	Y19	Z19	X20	Y20	Z20	X21	Y21	Z21	X22	Y22	Z22	X23	Y23	Z23	X24	Y24	Z24	X25	Y25	Z25	X26	Y26	Z26	X27	Y27	Z27	X28	Y28	Z28	X29	Y29	Z29	X30	Y30	Z30	X31	Y31	Z31	X32	Y32	Z32	X33	Y33	Z33	

124	6.400214285714	833.643261932769	1001.909175774595	527.175660075286	975.490099577960	1428.475663972222	322.210582018508	1107.620792129108	1361.629958964815	460.878572365642	1058.403464843033	1433.592035564279	648.123793990730	986.981820770302	1489.735176131042	479.127839860772	1073.806507017302	933.535074108943	611.221620809092	1025.376524521383	957.635456420345	340.943813158311	1071.417584861909	721.450455432614	583.621922511280	974.762083555254	625.893721353175	654.838209396552	1029.593076906964	561.467593911303	570.240923500540	1011.283951430441	475.865247253745	576.666435591653	1102.399153098117	766.905526100286	368.175919451442	1041.990674248021	637.461101685424	300.183306618476	1146.009526046148	577.652337196048	357.792580200906	1167.562665079641	510.453908525808	356.462511783603	1147.443396542942	437.438397015089	347.468724029229	1071.605003225135	311.479894656224	301.010558358675	1153.165467046207	207.620012734453	354.787322297153	971.842527433425	391.716964823842	587.324110806355	891.094920874439	299.867853750561	656.588873675667	911.425959362423	199.707810757984	591.476503365038	757.761669241793	44.384598201101	569.704280329544	929.198672922368	95.739193938741	602.185973873863	841.623747302651	36.550074361531	642.670236116319	1049.743379992914	42.313997866981	630.089425149246	1058.040742537640	38.783888034049	397.222627720543	1129.219851395725	38.926527286421	314.633134524130	1208.049485534404	107.363533136102	336.372885212900	1337.250722369293	65.670088128643	303.858092554835	847.482433023414	1093.411361134230	242.204678462353	837.687612832723	831.584383218188	248.166968445508	1192.764765415145	1116.232840324428	753.832902145981	1390.660518709653	1227.689879449326	653.127953739041	
125	6.413142857143	835.113984204235	1000.981187240710	524.196913447289	976.222016311197	1427.575014501699	319.097714712957	1108.240951030294	1361.308720730396	458.162302613550	1058.203574283008	1433.113605290654	645.292047254973	987.248584179043	1489.064178530007	476.054684042210	1075.383326009957	932.990835625815	608.906761741229	1027.338553702917	956.763183442782	338.677427028667	1072.556650405162	720.624742179566	581.933497674896	975.013501333235	625.465890914236	652.933373637576	1029.803919958900	560.527500128221	568.769046611882	1010.987086918293	474.464665893729	575.158272108793	1103.743858611128	764.866133686294	365.898068490628	1041.369659536420	635.707135543052	299.344849196212	1145.430117935967	575.730440892310	356.747818134617	1165.569959659705	507.948587355159	356.228717504775	1145.313427580830	434.834879275054	347.278314499432	1068.423727361959	309.285051796339	301.494167080253	1148.846508231304	204.977836776115	355.772555779697	970.398312171111	390.871753654083	586.021140023342	888.631929160716	300.172452979282	655.752275676380	907.715703959925	199.566994548325	591.003680597471	752.607743210063	45.164641777638	569.916716684491	924.299759745874	95.820427401460	602.191685222084	836.550139909335	36.836830566738	642.728416199979	1044.688388128536	41.894002239331	630.189053518403	1051.290325218548	38.404238376179	398.823989906095	1122.380553705371	37.562325428453	316.031878548639	1202.834688397125	103.881901551272	338.244614592671	1331.359472673177	59.243888885263	305.405149150550	850.013706556085	1091.850190243092	238.555148814210	843.310997116617	829.800452550018	244.113731943988	1191.270904207000	1114.319789473499	750.282580430208	1391.209294276535	1221.744568287666	648.564156342932	
126	6.426071428571	836.476306742836	1000.266313788713	521.144116368288	977.088124108340	1426.817373786868	315.827499267779	1108.923275828764	1361.109211831157	455.351635790843	1058.031098270805	1432.851748976867	642.321458291554	987.607303211970	1488.580205173453	472.810855437791	1076.839246167681	932.630593052278	606.490214975242	1029.181353077915	956.116247844240	336.311116381458	1073.856876106362	719.999898874008	580.116866405682	975.611639595279	625.113203890270	650.885950959773	1030.490957896913	559.711456946041	567.151260512514	1011.343249302254	473.013703371696	573.613167982377	1105.123991623071	763.267781109687	363.616933068674	1041.186847083018	634.480600746467	298.233335165183	1145.199318161645	574.315924470938	355.551672006447	1163.922989452320	505.960324721454	355.825990561165	1143.587093099359	432.717042069231	346.870449923433	1065.826504954519	307.632546809199	301.332718406949	1144.832394782647	202.818534041688	356.364911721662	969.410671637817	390.067046885248	584.663139262065	886.482343456751	300.661030815075	654.845808735573	904.249364005563	199.581341941093	590.531281364273	747.497838820091	46.335642782173	570.153709139199	919.548291372162	95.956163966302	602.214824630271	831.527013468128	37.317711896337	642.799701709685	1039.675436176193	41.418263484757	630.293280135498	1044.872291521202	38.194619973654	399.803173949340	1115.957328460151	36.614496757260	316.894246716006	1197.727706199530	101.147612590048	339.667423607675	1325.734479804416	54.064618628319	306.651450864635	853.186600760235	1090.216043059442	234.605380269768	849.795287854742	827.976317174879	239.637164389933	1189.229265577485	1112.416086018623	746.851448780551	1391.924659128659	1214.383306955105	644.194700145903	
127	6.439000000000	837.708709732324	999.817998201625	518.046974858756	978.063114628757	1426.261318433466	312.433999402757	1109.655668509380	1361.060666002601	452.453395988843	1057.923178158105	1432.855252363792	639.217360475423	988.054350436435	1488.328564658827	469.421778061979	1078.119089495723	932.507867024633	603.968498156756	1030.859118631656	955.730774106675	333.823729796470	1075.274729593575	719.632373997694	578.147390383368	976.597470578810	624.862535289204	648.717734037981	1031.718845313831	559.064649387028	565.398435289368	1012.462701635400	471.538640783181	572.110787602867	1106.541058393322	762.214085630806	361.339566126600	1041.465080524712	633.817246005358	296.840993815518	1145.292704468619	573.416063748359	354.166745360492	1162.630873293874	504.513317445968	355.199591876108	1142.252070837843	431.108398531583	346.235434891125	1063.780879745906	306.536391838575	300.565896088112	1141.128999004388	201.173081367980	356.584505144043	968.967955003403	389.334642236515	583.308206094149	884.700717569016	301.392368347681	653.898669622595	901.090969725556	199.804679270029	590.093299015916	742.469527044105	48.010093559515	570.407602704191	914.996351461459	96.160685575579	602.273394048027	826.572587936221	38.054739306131	642.882931052584	1034.703694283684	40.896088722898	630.396717589490	1038.873515987926	38.123521916842	400.251380258592	1110.008026052525	36.039404303100	317.291299766845	1192.752527898815	99.193583373983	340.627514082778	1320.404269222788	50.236523355701	307.552827027009	856.987303744395	1088.583393480906	230.383081726563	857.112944488479	826.200565947360	234.776206666247	1186.669979651383	1110.610733400759	743.535054948699	1392.723934449544	1205.588255013023	639.997749760275	
